<svg xmlns="http://www.w3.org/2000/svg" viewBox="0 0 24 24"><path fill-rule="evenodd" d="M21 5.016c.75.218 1.422.546 2.016.984v14.578a.713.713 0 0 1-.188.375.425.425 0 0 1-.305.14.585.585 0 0 1-.257-.046 8.344 8.344 0 0 0-2.297-.797 13.251 13.251 0 0 0-2.508-.234c-.86 0-1.805.14-2.836.422-1.031.28-1.906.64-2.625 1.078a6.979 6.979 0 0 0-2.578-1.196 10.823 10.823 0 0 0-2.906-.304c-.75 0-1.555.101-2.414.304a13.96 13.96 0 0 0-2.368.774l-.234.047A.531.531 0 0 1 1.148 21a.422.422 0 0 1-.164-.328V6a7.436 7.436 0 0 1 2.579-1.148 12.416 12.416 0 0 1 5.859 0A7.436 7.436 0 0 1 12 6a7.436 7.436 0 0 1 2.578-1.148 12.32 12.32 0 0 1 2.906-.352c1.22 0 2.391.172 3.516.516zm0 13.5V6.984a10.988 10.988 0 0 0-3.516-.468c-.875 0-1.828.14-2.859.421-1.031.282-1.906.641-2.625 1.079V19.5c.719-.438 1.594-.797 2.625-1.078S16.609 18 17.485 18c1.218 0 2.39.172 3.515.516z"/></svg>