<svg xmlns="http://www.w3.org/2000/svg" viewBox="0 0 24 24"><path fill-rule="evenodd" d="M12.984 12.984c1.25 0 2.563.274 3.938.82 1.375.548 2.062 1.274 2.062 2.18V18h-12v-2.016c0-.906.688-1.632 2.063-2.18 1.375-.546 2.687-.82 3.937-.82zm6.657.188c1.156.187 2.171.523 3.047 1.008.875.484 1.312 1.086 1.312 1.804V18h-3v-2.016c0-1.062-.453-2-1.36-2.812zm-6.657-2.156c-.812 0-1.515-.297-2.109-.891-.594-.594-.89-1.297-.89-2.11 0-.812.296-1.515.89-2.109.594-.594 1.297-.89 2.11-.89.812 0 1.515.296 2.109.89.594.594.89 1.297.89 2.11 0 .812-.296 1.515-.89 2.109-.594.594-1.297.89-2.11.89zm5.016 0c-.313 0-.61-.047-.89-.141a4.85 4.85 0 0 0 .89-2.86 4.85 4.85 0 0 0-.89-2.859c.28-.094.577-.14.89-.14.813 0 1.516.296 2.11.89.593.594.89 1.297.89 2.11 0 .812-.297 1.515-.89 2.109-.594.594-1.297.89-2.11.89zM8.016 9.984V12h-3v3H3v-3H0V9.984h3v-3h2.016v3h3z"/></svg>