<svg xmlns="http://www.w3.org/2000/svg" viewBox="0 0 24 24"><path fill-rule="evenodd" d="M12 .984l9 4.032v6c-.063 2.843-.922 5.375-2.578 7.593-1.656 2.22-3.797 3.688-6.422 4.407-2.625-.72-4.766-2.188-6.422-4.407C3.922 16.391 3.063 13.86 3 11.016v-6l9-4.032zm0 4.032c-.844 0-1.547.28-2.11.843-.562.563-.843 1.274-.843 2.133 0 .86.281 1.57.844 2.133.562.563 1.265.844 2.109.844.844 0 1.547-.281 2.11-.844.562-.563.843-1.273.843-2.133 0-.86-.281-1.57-.844-2.133-.562-.562-1.265-.843-2.109-.843zm5.11 12c.343-.5.64-1.016.89-1.547-.031-.844-.617-1.547-1.758-2.11-1.14-.562-2.554-.843-4.242-.843-1.688 0-3.102.28-4.242.843-1.14.563-1.727 1.266-1.758 2.11.25.531.547 1.047.89 1.547a9.604 9.604 0 0 0 2.204 2.367A9.574 9.574 0 0 0 12 20.906a9.574 9.574 0 0 0 2.906-1.523 9.604 9.604 0 0 0 2.203-2.367z"/></svg>
