<svg xmlns="http://www.w3.org/2000/svg" xmlns:xlink="http://www.w3.org/1999/xlink" viewBox="0 0 24 24"><path fill-rule="evenodd" d="M15,14.015625 C16.5000075,14.015625 18.1640534,14.3437467 19.9921875,15 C21.8203216,15.6562533 22.8281241,16.6562433 23.015625,18 L23.015625,20.015625 L6.984375,20.015625 L6.984375,18 C7.17187594,16.6562433 8.17967836,15.6562533 10.0078125,15 C11.8359466,14.3437467 13.4999925,14.015625 15,14.015625 Z M15,12 C13.8749944,11.9687498 12.9375038,11.5781288 12.1875,10.828125 C11.4374963,10.0781212 11.0625,9.1328182 11.0625,7.9921875 C11.0625,6.8515568 11.4374963,5.90625375 12.1875,5.15625 C12.9375038,4.40624625 13.8749944,4.03125 15,4.03125 C16.1250056,4.03125 17.0624963,4.40624625 17.8125,5.15625 C18.5625038,5.90625375 18.9375,6.8515568 18.9375,7.9921875 C18.9375,9.1328182 18.5625038,10.0781212 17.8125,10.828125 C17.0624963,11.5781288 16.1250056,11.9687498 15,12 Z M1.41421356,10 L3,11.5857864 L6.58578644,8 L8,9.41421356 L3,14.4142136 L-3.54702934e-11,11.4142136 L1.41421356,10 Z"/></svg>
