<svg xmlns="http://www.w3.org/2000/svg" viewBox="0 0 24 24"><path fill-rule="evenodd" d="M15.047 11.25A3.069 3.069 0 0 0 15.984 9c0-1.094-.39-2.031-1.171-2.813-.782-.78-1.72-1.171-2.813-1.171-1.094 0-2.031.39-2.813 1.171-.78.782-1.171 1.72-1.171 2.813h1.968c0-.531.203-1 .61-1.406.406-.407.875-.61 1.406-.61.531 0 1 .203 1.406.61.407.406.61.875.61 1.406 0 .531-.203 1-.61 1.406l-1.219 1.266c-.78.844-1.171 1.781-1.171 2.812V15h1.968c0-1.031.391-1.969 1.172-2.813l.89-.937zm-2.063 7.734v-1.968h-1.968v1.968h1.968zM12 2.016c2.75 0 5.102.976 7.055 2.93 1.953 1.952 2.93 4.304 2.93 7.054s-.977 5.102-2.93 7.055c-1.953 1.953-4.305 2.93-7.055 2.93s-5.102-.977-7.055-2.93C2.992 17.102 2.015 14.75 2.015 12s.977-5.102 2.93-7.055C6.898 2.992 9.25 2.015 12 2.015z"/></svg>