<svg xmlns="http://www.w3.org/2000/svg" viewBox="0 0 24 24"><path fill-rule="evenodd" d="M14.016 12.984h3L12 8.016l-5.016 4.968h3v4.032h4.032v-4.032zm5.343-2.953c1.282.094 2.375.617 3.282 1.57C23.547 12.556 24 13.688 24 15c0 1.375-.492 2.555-1.477 3.54-.984.983-2.164 1.476-3.539 1.476H6c-1.656 0-3.07-.586-4.242-1.758C.586 17.086 0 15.672 0 14.016c0-1.532.516-2.868 1.547-4.008 1.031-1.14 2.297-1.79 3.797-1.945a7.838 7.838 0 0 1 2.765-2.954A7.145 7.145 0 0 1 12 3.984c1.813 0 3.406.57 4.781 1.711 1.375 1.14 2.235 2.586 2.578 4.336z"/></svg>