<svg xmlns="http://www.w3.org/2000/svg" viewBox="0 0 24 24">
    <path
    fill-rule="evenodd"
    d="M12.78 2.03l.37 2.07c.62.1 1.22.25 1.8.49l1.36-1.62c.47.23.92.5 1.35.79l-.72 1.97c.5.4.94.84 1.33 1.33l1.97-.72c.3.43.56.88.79 1.35L19.4 9.04c.24.59.4 1.2.49 1.81l2.07.37c.04.52.04 1.04 0 1.56l-2.07.37a7.98 7.98 0 01-.49 1.8l1.62 1.36c-.23.47-.5.92-.79 1.35l-1.97-.72c-.4.5-.84.94-1.33 1.33l.72 1.97a10 10 0 01-1.35.79l-1.35-1.62c-.59.24-1.2.4-1.81.49l-.37 2.07a10 10 0 01-1.56 0l-.37-2.07a7.98 7.98 0 01-1.8-.49l-1.36 1.62a10 10 0 01-1.35-.79l.72-1.97c-.5-.4-.94-.84-1.33-1.33l-1.97.72a10 10 0 01-.79-1.35l1.62-1.35c-.24-.59-.4-1.2-.49-1.81l-2.07-.37a10 10 0 010-1.56l2.07-.37c.1-.62.25-1.22.49-1.8L2.97 7.68a10 10 0 01.79-1.35l1.97.72c.4-.5.84-.94 1.33-1.33l-.72-1.97c.43-.3.88-.56 1.35-.79L9.04 4.6c.59-.24 1.2-.4 1.81-.49l.37-2.07a9.98 9.98 0 011.56 0zM17.9 13h-4.17A2 2 0 0012 14L9.91 17.6a5.97 5.97 0 008-4.61zM8.18 7.38a5.97 5.97 0 000 9.23L10.27 13a2 2 0 000-2l-2.1-3.62zm1.73-1L12 10a2 2 0 001.73 1h4.18a5.97 5.97 0 00-8-4.61z"
    />
</svg>